<?xml version="1.0" encoding="UTF-8" standalone="no"?>
<!DOCTYPE svg PUBLIC "-//W3C//DTD SVG 1.1//EN"
 "http://www.w3.org/Graphics/SVG/1.1/DTD/svg11.dtd">
<!-- Generated by graphviz version 2.38.0 (20140413.2041)
 -->
<!-- Title: %3 Pages: 1 -->
<svg width="328pt" height="277pt"
 viewBox="0.00 0.00 327.60 276.58" xmlns="http://www.w3.org/2000/svg" xmlns:xlink="http://www.w3.org/1999/xlink">
<g id="graph0" class="graph" transform="scale(1 1) rotate(0) translate(4 272.576)">
<title>%3</title>
<polygon fill="white" stroke="none" points="-4,4 -4,-272.576 323.598,-272.576 323.598,4 -4,4"/>
<!-- A -->
<g id="node1" class="node"><title>A</title>
<polygon fill="lightgray" stroke="black" points="25.3491,-248.584 2.34908,-248.584 2.34908,-230.584 25.3491,-230.584 25.3491,-248.584"/>
<text text-anchor="middle" x="13.8491" y="-237.384" font-family="Times,serif" font-size="9.00">A</text>
</g>
<!-- A XOR B -->
<g id="node3" class="node"><title>A XOR B</title>
<ellipse fill="lightblue" stroke="black" cx="66.8491" cy="-40.3051" rx="40.1111" ry="40.1111"/>
<text text-anchor="middle" x="66.8491" y="-38.1051" font-family="Times,serif" font-size="9.00">A XOR B</text>
</g>
<!-- A&#45;&gt;A XOR B -->
<g id="edge9" class="edge"><title>A&#45;&gt;A XOR B</title>
<path fill="none" stroke="red" stroke-width="0.278942" d="M11.2457,-230.291C5.36589,-210.137 -7.36324,-157.255 6.84908,-116.61 11.9597,-101.995 21.2268,-88.097 30.9735,-76.3113"/>
<polygon fill="red" stroke="red" stroke-width="0.278942" points="33.8375,-78.3513 37.7527,-68.5064 28.5527,-73.761 33.8375,-78.3513"/>
</g>
<!-- 101 -->
<g id="node4" class="node"><title>101</title>
<ellipse fill="white" stroke="black" cx="40.8491" cy="-145.602" rx="25" ry="25"/>
<text text-anchor="middle" x="40.8491" y="-143.402" font-family="Times,serif" font-size="9.00">101</text>
</g>
<!-- A&#45;&gt;101 -->
<g id="edge1" class="edge"><title>A&#45;&gt;101</title>
<path fill="none" stroke="red" stroke-width="1.01448" d="M16.2452,-230.421C19.5991,-218.995 25.887,-197.574 31.2663,-179.248"/>
<polygon fill="red" stroke="red" stroke-width="1.01448" points="34.6787,-180.049 34.137,-169.468 27.9621,-178.078 34.6787,-180.049"/>
</g>
<!-- B -->
<g id="node2" class="node"><title>B</title>
<polygon fill="lightgray" stroke="black" points="105.349,-248.584 82.3491,-248.584 82.3491,-230.584 105.349,-230.584 105.349,-248.584"/>
<text text-anchor="middle" x="93.8491" y="-237.384" font-family="Times,serif" font-size="9.00">B</text>
</g>
<!-- B&#45;&gt;A XOR B -->
<g id="edge6" class="edge"><title>B&#45;&gt;A XOR B</title>
<path fill="none" stroke="red" stroke-width="0.295038" d="M92.6889,-230.107C89.4447,-206.403 80.0904,-138.055 73.5761,-90.4567"/>
<polygon fill="red" stroke="red" stroke-width="0.295038" points="77.0152,-89.7731 72.1915,-80.34 70.0799,-90.7223 77.0152,-89.7731"/>
</g>
<!-- B&#45;&gt;101 -->
<g id="edge2" class="edge"><title>B&#45;&gt;101</title>
<path fill="none" stroke="red" stroke-width="0.603946" d="M89.1457,-230.421C82.2223,-218.406 68.9304,-195.337 58.0408,-176.438"/>
<polygon fill="red" stroke="red" stroke-width="0.603946" points="60.9515,-174.479 52.9264,-167.562 54.8863,-177.974 60.9515,-174.479"/>
</g>
<!-- 1806 -->
<g id="node7" class="node"><title>1806</title>
<ellipse fill="white" stroke="black" cx="150.849" cy="-145.602" rx="28.9828" ry="28.9828"/>
<text text-anchor="middle" x="150.849" y="-143.402" font-family="Times,serif" font-size="9.00">1806</text>
</g>
<!-- B&#45;&gt;1806 -->
<g id="edge7" class="edge"><title>B&#45;&gt;1806</title>
<path fill="none" stroke="green" stroke-width="0.453445" d="M98.9075,-230.421C105.979,-219.01 119.227,-197.631 130.574,-179.321"/>
<polygon fill="green" stroke="green" stroke-width="0.453445" points="133.663,-180.98 135.956,-170.636 127.713,-177.292 133.663,-180.98"/>
</g>
<!-- 101&#45;&gt;A XOR B -->
<g id="edge3" class="edge"><title>101&#45;&gt;A XOR B</title>
<path fill="none" stroke="red" stroke-width="0.68402" d="M46.684,-121.42C49.0454,-112.038 51.8654,-100.834 54.6375,-89.8211"/>
<polygon fill="red" stroke="red" stroke-width="0.68402" points="58.1084,-90.3701 57.1552,-79.8182 51.3201,-88.6614 58.1084,-90.3701"/>
</g>
<!-- 102 -->
<g id="node5" class="node"><title>102</title>
<ellipse fill="white" stroke="black" cx="222.849" cy="-145.602" rx="25" ry="25"/>
<text text-anchor="middle" x="222.849" y="-143.402" font-family="Times,serif" font-size="9.00">102</text>
</g>
<!-- 344 -->
<g id="node9" class="node"><title>344</title>
<ellipse fill="white" stroke="black" cx="222.849" cy="-40.3051" rx="25" ry="25"/>
<text text-anchor="middle" x="222.849" y="-38.1051" font-family="Times,serif" font-size="9.00">344</text>
</g>
<!-- 102&#45;&gt;344 -->
<g id="edge4" class="edge"><title>102&#45;&gt;344</title>
<path fill="none" stroke="red" stroke-width="0.395685" stroke-dasharray="1,5" d="M222.849,-120.644C222.849,-107.215 222.849,-90.2411 222.849,-75.4425"/>
<polygon fill="red" stroke="red" stroke-width="0.395685" points="226.349,-75.133 222.849,-65.1331 219.349,-75.1331 226.349,-75.133"/>
</g>
<!-- 518 -->
<g id="node6" class="node"><title>518</title>
<ellipse fill="white" stroke="black" cx="294.849" cy="-239.584" rx="25" ry="25"/>
<text text-anchor="middle" x="294.849" y="-237.384" font-family="Times,serif" font-size="9.00">518</text>
</g>
<!-- 1806&#45;&gt;A XOR B -->
<g id="edge8" class="edge"><title>1806&#45;&gt;A XOR B</title>
<path fill="none" stroke="green" stroke-width="0.107275" d="M133.035,-122.695C122.958,-110.303 110.062,-94.4453 98.3357,-80.0249"/>
<polygon fill="green" stroke="green" stroke-width="0.107275" points="100.991,-77.7428 91.9665,-72.1925 95.5602,-82.1592 100.991,-77.7428"/>
</g>
<!-- 1103 -->
<g id="node8" class="node"><title>1103</title>
<ellipse fill="white" stroke="black" cx="222.849" cy="-239.584" rx="28.9828" ry="28.9828"/>
<text text-anchor="middle" x="222.849" y="-237.384" font-family="Times,serif" font-size="9.00">1103</text>
</g>
<!-- 1103&#45;&gt;102 -->
<g id="edge5" class="edge"><title>1103&#45;&gt;102</title>
<path fill="none" stroke="red" stroke-width="0.154363" stroke-dasharray="1,5" d="M222.849,-210.487C222.849,-201.097 222.849,-190.529 222.849,-180.732"/>
<polygon fill="red" stroke="red" stroke-width="0.154363" points="226.349,-180.495 222.849,-170.495 219.349,-180.495 226.349,-180.495"/>
</g>
</g>
</svg>
